<mxfile host="app.diagrams.net" modified="2023-09-25T15:23:41.620Z" agent="Mozilla/5.0 (Windows NT 10.0; Win64; x64) AppleWebKit/537.36 (KHTML, like Gecko) Chrome/115.0.0.0 Safari/537.36 OPR/101.0.0.0" version="21.8.2" etag="Li4IIAFS-UmRR0CGOvtv" type="github">
  <diagram name="PÃ¡gina-1" id="GKWhYcWnZCL5dknQ5ukN">
    <mxGraphModel>
      <root>
        <mxCell id="0" />
        <mxCell id="1" parent="0" />
      </root>
    </mxGraphModel>
  </diagram>
</mxfile>
